<?xml version="1.0" encoding="UTF-8"?>
<svg version="1.1" xmlns="http://www.w3.org/2000/svg" width="256" height="256">
<path d="M0 0 C1.12569901 -0.00281982 2.25139801 -0.00563965 3.41120911 -0.00854492 C4.63680542 -0.00652069 5.86240173 -0.00449646 7.12513733 -0.00241089 C8.42320816 -0.00416321 9.72127899 -0.00591553 11.0586853 -0.00772095 C14.61240728 -0.01227343 18.16610017 -0.01051458 21.71982265 -0.00734186 C25.44327163 -0.00480645 29.16671815 -0.00715914 32.89016724 -0.00872803 C39.14362535 -0.01054649 45.39707164 -0.0081521 51.65052795 -0.00338745 C58.87311594 0.00205217 66.09567569 0.00029339 73.31826299 -0.00521386 C79.52562734 -0.00975701 85.73298321 -0.01038957 91.94034868 -0.00777519 C95.64494925 -0.00621873 99.34953657 -0.0060013 103.05413628 -0.00931168 C107.18589312 -0.01274592 111.31760157 -0.007981 115.44935608 -0.00241089 C116.67292816 -0.00443512 117.89650024 -0.00645935 119.15715027 -0.00854492 C120.2856691 -0.0057251 121.41418793 -0.00290527 122.5769043 0 C123.55304152 0.00037703 124.52917875 0.00075405 125.5348959 0.0011425 C128.53967105 0.13536965 131.39744413 0.57610508 134.35194397 1.12698364 C134.35194397 1.78698364 134.35194397 2.44698364 134.35194397 3.12698364 C135.23881897 3.25073364 136.12569397 3.37448364 137.03944397 3.50198364 C140.05581899 4.07111101 142.55520451 4.893128 145.35194397 6.12698364 C145.35194397 6.78698364 145.35194397 7.44698364 145.35194397 8.12698364 C146.21819397 8.31260864 147.08444397 8.49823364 147.97694397 8.68948364 C151.86155138 10.34403865 153.39958109 12.13826906 155.96131897 15.38088989 C157.42957889 17.29961295 157.42957889 17.29961295 159.72694397 19.43948364 C161.35194397 21.12698364 161.35194397 21.12698364 161.35194397 23.12698364 C162.01194397 23.12698364 162.67194397 23.12698364 163.35194397 23.12698364 C164.34194397 26.09698364 164.34194397 26.09698364 165.35194397 29.12698364 C166.01194397 29.12698364 166.67194397 29.12698364 167.35194397 29.12698364 C167.62909241 30.27038208 167.90624084 31.41378052 168.19178772 32.59182739 C168.55748775 34.08275829 168.92338326 35.57364126 169.28944397 37.06448364 C169.56304749 38.19660278 169.56304749 38.19660278 169.84217834 39.35159302 C170.49033576 43.03978185 170.49033576 43.03978185 172.35194397 46.12698364 C172.57962254 47.63991426 172.74676684 49.1620607 172.88710022 50.68557739 C172.97411194 51.62981567 173.06112366 52.57405396 173.15077209 53.54690552 C173.23778381 54.5427063 173.32479553 55.53850708 173.41444397 56.56448364 C173.55076233 58.00597778 173.55076233 58.00597778 173.68983459 59.47659302 C174.24896738 65.71113379 174.46775886 71.8686902 174.35194397 78.12698364 C175.01194397 78.12698364 175.67194397 78.12698364 176.35194397 78.12698364 C176.46787903 79.36375854 176.58381409 80.60053345 176.70326233 81.87478638 C177.13301243 86.44667081 177.5686034 91.01798284 178.0059967 95.58914185 C178.19477648 97.57076041 178.38195423 99.55253224 178.56752014 101.53445435 C178.83393378 104.37691029 179.10603206 107.2187721 179.37928772 110.06057739 C179.50278847 111.39807289 179.50278847 111.39807289 179.62878418 112.7625885 C179.65799364 116.77341168 179.65799364 116.77341168 181.35194397 120.12698364 C183.11166286 130.88049996 183.54265498 142.05839466 183.60194397 152.93948364 C183.61104797 153.73137085 183.62015198 154.52325806 183.62953186 155.33914185 C183.59002031 162.96003339 182.35125938 169.91773644 178.72694397 176.68948364 C178.28092834 177.53639771 177.83491272 178.38331177 177.37538147 179.25588989 C177.03764709 179.87335083 176.69991272 180.49081177 176.35194397 181.12698364 C175.69194397 181.12698364 175.03194397 181.12698364 174.35194397 181.12698364 C174.18694397 181.97260864 174.02194397 182.81823364 173.85194397 183.68948364 C171.75458995 188.49591994 168.39651789 190.92082428 164.35194397 194.12698364 C163.40319397 194.93135864 162.45444397 195.73573364 161.47694397 196.56448364 C159.35194397 198.12698364 159.35194397 198.12698364 157.35194397 198.12698364 C157.35194397 198.78698364 157.35194397 199.44698364 157.35194397 200.12698364 C155.45861863 200.94531086 153.56216664 201.75640632 151.66444397 202.56448364 C150.60870178 203.01694458 149.55295959 203.46940552 148.46522522 203.93557739 C143.50387539 205.8342119 139.11198925 206.25370494 133.8129425 206.26742554 C133.1698192 206.27039666 132.5266959 206.27336778 131.86408401 206.27642894 C129.71712034 206.28507456 127.5702127 206.28662066 125.42323303 206.28811646 C123.88046653 206.29274757 122.33770117 206.29777262 120.79493713 206.30316162 C116.60881243 206.31625954 112.42270376 206.32272551 108.23656178 206.32717228 C105.61878813 206.33010728 103.00101883 206.33421289 100.38324738 206.33867645 C92.18572709 206.35234464 83.98821678 206.36201456 75.79068589 206.36587834 C66.34105835 206.37035728 56.89157558 206.38790035 47.44199204 206.41687894 C40.12885693 206.43852413 32.81576246 206.44858414 25.50259566 206.44991946 C21.13888842 206.45096548 16.77531739 206.45682981 12.41164398 206.47473907 C8.30431527 206.49126887 4.19722447 206.49335158 0.08987427 206.48460007 C-1.41248463 206.48383231 -2.91485658 206.4881378 -4.41718292 206.49805832 C-12.29685876 206.54701463 -19.32906854 206.3305456 -26.64805603 203.12698364 C-27.51559509 202.81374146 -28.38313416 202.50049927 -29.27696228 202.17776489 C-31.06732686 201.49417114 -32.85769145 200.81057739 -34.64805603 200.12698364 C-34.64805603 199.46698364 -34.64805603 198.80698364 -34.64805603 198.12698364 C-35.49368103 197.96198364 -36.33930603 197.79698364 -37.21055603 197.62698364 C-41.34951813 195.82089109 -43.2293232 193.55002287 -46.03477478 190.09963989 C-47.58830457 188.12361623 -47.58830457 188.12361623 -49.31211853 186.50979614 C-50.95469588 184.8095845 -51.25184731 183.42499422 -51.64805603 181.12698364 C-52.30805603 181.12698364 -52.96805603 181.12698364 -53.64805603 181.12698364 C-54.63805603 178.15698364 -55.62805603 175.18698364 -56.64805603 172.12698364 C-57.30805603 172.12698364 -57.96805603 172.12698364 -58.64805603 172.12698364 C-63.12171533 155.35076127 -60.4826221 137.13575314 -58.64805603 120.12698364 C-57.98805603 120.12698364 -57.32805603 120.12698364 -56.64805603 120.12698364 C-56.67899353 118.81987427 -56.70993103 117.51276489 -56.74180603 116.16604614 C-56.74180603 108.57409201 -55.89712877 101.04801172 -55.14805603 93.50198364 C-55.00308854 92.0059321 -54.85855401 90.50983854 -54.71446228 89.01370239 C-54.36397973 85.38429849 -54.00765566 81.75549694 -53.64805603 78.12698364 C-52.98805603 78.12698364 -52.32805603 78.12698364 -51.64805603 78.12698364 C-51.67125916 77.57655396 -51.69446228 77.02612427 -51.71836853 76.45901489 C-51.93899358 66.29450364 -50.70514652 56.22135438 -49.64805603 46.12698364 C-48.98805603 46.12698364 -48.32805603 46.12698364 -47.64805603 46.12698364 C-47.59907166 45.47471802 -47.55008728 44.82245239 -47.49961853 44.15042114 C-47.07563374 39.19418512 -46.4914003 34.79678913 -44.64805603 30.12698364 C-43.98805603 30.12698364 -43.32805603 30.12698364 -42.64805603 30.12698364 C-42.54493103 29.36385864 -42.44180603 28.60073364 -42.33555603 27.81448364 C-41.57895773 24.8568721 -40.83032778 24.13467365 -38.64805603 22.12698364 C-38.36575134 21.51081177 -38.08344666 20.89463989 -37.79258728 20.25979614 C-36.45085577 17.75950466 -34.93651325 16.3891353 -32.77305603 14.56448364 C-32.09500916 13.98569458 -31.41696228 13.40690552 -30.71836853 12.81057739 C-24.9589609 8.12698364 -24.9589609 8.12698364 -22.64805603 8.12698364 C-22.64805603 7.46698364 -22.64805603 6.80698364 -22.64805603 6.12698364 C-20.75473069 5.30865642 -18.8582787 4.49756097 -16.96055603 3.68948364 C-15.90481384 3.23702271 -14.84907166 2.78456177 -13.76133728 2.31838989 C-9.10847506 0.53780899 -4.96685772 0.00191915 0 0 Z M-5.64805603 29.12698364 C-5.64805603 29.78698364 -5.64805603 30.44698364 -5.64805603 31.12698364 C-6.36993103 31.18885864 -7.09180603 31.25073364 -7.83555603 31.31448364 C-11.53204677 32.38235874 -13.17944471 34.2351818 -15.64805603 37.12698364 C-15.64805603 37.78698364 -15.64805603 38.44698364 -15.64805603 39.12698364 C-16.30805603 39.12698364 -16.96805603 39.12698364 -17.64805603 39.12698364 C-19.14626662 42.49795748 -19.64805603 44.33140483 -19.64805603 48.12698364 C-20.30805603 48.12698364 -20.96805603 48.12698364 -21.64805603 48.12698364 C-22.96805603 61.65698364 -24.28805603 75.18698364 -25.64805603 89.12698364 C-25.97805603 89.12698364 -26.30805603 89.12698364 -26.64805603 89.12698364 C-26.73369812 90.08588501 -26.81934021 91.04478638 -26.90757751 92.03274536 C-27.22593088 95.58520453 -27.54958808 99.13716379 -27.87486267 102.68899536 C-28.01498675 104.22727523 -28.15366577 105.76568743 -28.2908783 107.30422974 C-28.48818142 109.51373981 -28.6906507 111.72272421 -28.89414978 113.93167114 C-28.95460983 114.62130951 -29.01506989 115.31094788 -29.07736206 116.02148438 C-29.53418432 120.89924023 -29.53418432 120.89924023 -30.64805603 123.12698364 C-32.75855647 135.97727805 -35.40574959 152.77963607 -30.64805603 165.12698364 C-29.98805603 165.12698364 -29.32805603 165.12698364 -28.64805603 165.12698364 C-28.44180603 165.84885864 -28.23555603 166.57073364 -28.02305603 167.31448364 C-26.15984475 171.12559763 -24.09933362 172.66178537 -20.64805603 175.12698364 C-19.65805603 175.12698364 -18.66805603 175.12698364 -17.64805603 175.12698364 C-17.64805603 175.78698364 -17.64805603 176.44698364 -17.64805603 177.12698364 C-9.99190693 179.19525252 -2.82332518 179.41112192 5.08241272 179.38577271 C6.44843227 179.38848779 7.81445035 179.39205161 9.1804657 179.39639282 C12.86640689 179.40545763 16.55223526 179.40199714 20.23817825 179.39563465 C24.10968055 179.39054389 27.98117368 179.39527461 31.85267639 179.39840698 C38.35212423 179.4020377 44.8515265 179.39727106 51.35096741 179.38772583 C58.84740062 179.376843 66.34372502 179.38036921 73.8401556 179.39137864 C80.29563543 179.40047706 86.75108264 179.40172433 93.20656681 179.3965013 C97.05373987 179.39339562 100.90086191 179.39293349 104.74803162 179.39957428 C108.3662102 179.40538441 111.98424952 179.40128433 115.60241318 179.38978577 C117.55079206 179.38591319 119.49918283 179.39179345 121.44755554 179.39804077 C128.07105281 179.36631334 133.95075312 178.85623207 140.35194397 177.12698364 C140.35194397 176.46698364 140.35194397 175.80698364 140.35194397 175.12698364 C141.05319397 175.08573364 141.75444397 175.04448364 142.47694397 175.00198364 C146.40658487 173.80600598 148.94994904 171.44520344 151.35194397 168.12698364 C151.35194397 167.13698364 151.35194397 166.14698364 151.35194397 165.12698364 C152.01194397 165.12698364 152.67194397 165.12698364 153.35194397 165.12698364 C158.50348656 151.90060247 154.87716069 134.90058308 153.35194397 121.12698364 C152.69194397 121.12698364 152.03194397 121.12698364 151.35194397 121.12698364 C151.37514709 120.57655396 151.39835022 120.02612427 151.42225647 119.45901489 C151.64288152 109.29450364 150.40903446 99.22135438 149.35194397 89.12698364 C148.69194397 89.12698364 148.03194397 89.12698364 147.35194397 89.12698364 C147.37804749 88.20888916 147.37804749 88.20888916 147.40467834 87.27224731 C147.53314054 78.92602801 146.73830261 70.72505318 145.85194397 62.43948364 C145.70689858 61.04435471 145.56236403 59.64917257 145.41835022 58.25393677 C145.06787897 54.8777304 144.71230211 51.50214656 144.35194397 48.12698364 C143.69194397 48.12698364 143.03194397 48.12698364 142.35194397 48.12698364 C142.29006897 47.11635864 142.22819397 46.10573364 142.16444397 45.06448364 C141.5134675 40.54432309 139.41827146 37.44170079 136.35194397 34.12698364 C133.33248792 31.89833751 132.11050865 31.12698364 128.35194397 31.12698364 C128.35194397 30.46698364 128.35194397 29.80698364 128.35194397 29.12698364 C121.3824211 27.31279627 115.00883583 26.84017934 107.82460022 26.86819458 C106.14719254 26.86293762 106.14719254 26.86293762 104.43589783 26.85757446 C100.76201558 26.84881625 97.08832797 26.85458549 93.41444397 26.86135864 C90.84811873 26.8600103 88.28179373 26.85806835 85.71546936 26.8555603 C80.34589459 26.85261704 74.97639215 26.85668832 69.60682678 26.86624146 C63.41914348 26.87712373 57.23159204 26.87359731 51.04391193 26.86258864 C45.06542469 26.8523822 39.0870014 26.85350937 33.10850525 26.85935211 C30.5760547 26.86068266 28.04360077 26.85906181 25.51115417 26.85439301 C21.96710908 26.84929251 18.42331426 26.85708768 14.87928772 26.86819458 C13.84109894 26.86414612 12.80291016 26.86009766 11.73326111 26.85592651 C5.63801764 26.89116823 0.25531243 27.59031941 -5.64805603 29.12698364 Z " fill="#004956" transform="translate(66.64805603027344,24.873016357421875)"/>
<path d="M0 0 C0.66 0.33 1.32 0.66 2 1 C2 1.66 2 2.32 2 3 C4.97 3.99 7.94 4.98 11 6 C11 6.66 11 7.32 11 8 C13.64 8.66 16.28 9.32 19 10 C19 10.66 19 11.32 19 12 C27.48982597 13.55810358 27.48982597 13.55810358 36 15 C36 15.66 36 16.32 36 17 C45.9 17 55.8 17 66 17 C66 16.34 66 15.68 66 15 C68.10320063 14.49595192 70.20759791 13.99689492 72.3125 13.5 C73.48425781 13.2215625 74.65601563 12.943125 75.86328125 12.65625 C79 12 79 12 82 12 C82 11.34 82 10.68 82 10 C84.97 9.34 87.94 8.68 91 8 C91 7.34 91 6.68 91 6 C96.75 3 96.75 3 99 3 C99 2.34 99 1.68 99 1 C104.75041721 -1.24406525 109.4156671 -2.0436729 115.25 0.3125 C118.97021185 2.59535727 120.61171208 3.83513623 122 8 C122.09225211 9.49774018 122.1300019 10.99942974 122.125 12.5 C122.12757813 13.2734375 122.13015625 14.046875 122.1328125 14.84375 C122 17 122 17 121 20 C120.34 20 119.68 20 119 20 C118.34 21.32 117.68 22.64 117 24 C116.34 24 115.68 24 115 24 C115 24.66 115 25.32 115 26 C112.71070947 27.17154293 110.41881638 28.33738074 108.125 29.5 C107.47402344 29.83386719 106.82304687 30.16773438 106.15234375 30.51171875 C101.2265625 33 101.2265625 33 99 33 C99 33.66 99 34.32 99 35 C97.56445975 35.50559908 96.1264798 36.0042749 94.6875 36.5 C93.88699219 36.7784375 93.08648437 37.056875 92.26171875 37.34375 C90 38 90 38 87 38 C87 38.66 87 39.32 87 40 C77.58997722 42.29612756 77.58997722 42.29612756 73 42 C73 42.66 73 43.32 73 44 C57.89251345 45.92624433 43.0669178 46.79814188 28 44 C28 43.34 28 42.68 28 42 C26.865625 41.95875 25.73125 41.9175 24.5625 41.875 C16.72649841 41.05612524 9.32433215 37.74977797 2 35 C2 34.34 2 33.68 2 33 C0.96875 32.7525 -0.0625 32.505 -1.125 32.25 C-4.9347958 31.17801292 -7.76433137 29.27967563 -11 27 C-11.99 26.67 -12.98 26.34 -14 26 C-17.55221215 22.95145972 -20.24903819 19.69809037 -21 15 C-21 10.79496035 -20.63854073 7.87291446 -19 4 C-13.52652674 -1.33312779 -7.16605909 -2.38868636 0 0 Z " fill="#004956" transform="translate(77,135)"/>
<path d="" fill="#000000" transform="translate(0,0)"/>
<path d="" fill="#000000" transform="translate(0,0)"/>
<path d="" fill="#000000" transform="translate(0,0)"/>
<path d="" fill="#000000" transform="translate(0,0)"/>
<path d="" fill="#000000" transform="translate(0,0)"/>
<path d="" fill="#000000" transform="translate(0,0)"/>
<path d="" fill="#000000" transform="translate(0,0)"/>
<path d="" fill="#000000" transform="translate(0,0)"/>
<path d="" fill="#000000" transform="translate(0,0)"/>
<path d="" fill="#000000" transform="translate(0,0)"/>
<path d="" fill="#000000" transform="translate(0,0)"/>
<path d="" fill="#000000" transform="translate(0,0)"/>
<path d="" fill="#000000" transform="translate(0,0)"/>
<path d="" fill="#000000" transform="translate(0,0)"/>
<path d="" fill="#000000" transform="translate(0,0)"/>
<path d="" fill="#000000" transform="translate(0,0)"/>
<path d="" fill="#000000" transform="translate(0,0)"/>
</svg>
